<svg xmlns="http://www.w3.org/2000/svg" viewBox="0 0 1096 1096">
	<style>
		tspan { white-space:pre }
		.shp0 { fill: #eeefe6 } 
		.shp1 { fill: none;stroke: #000000;stroke-width: 6 } 
		.shp2 { fill: #000000 } 
	</style>
	<g id="Page 1">
		<path id="Path 1" class="shp0" d="M0,548.08c0,302.61 245.31,547.92 547.92,547.92c302.61,0 547.92,-245.31 547.92,-547.92c0,-302.61 -245.31,-547.92 -547.92,-547.92c-302.61,0 -547.92,245.31 -547.92,547.92z" />
		<path id="Path 2" class="shp1" d="M867.56,548.08h-640.01" />
		<path id="Path 3" class="shp2" d="M228.37 531.63C237.46 531.63 244.82 539 244.82 548.08C244.82 557.17 237.46 564.53 228.37 564.53C219.29 564.53 211.92 557.17 211.92 548.08C211.92 539 219.29 531.63 228.37 531.63ZM866.74 531.63C875.82 531.63 883.19 539 883.19 548.08C883.19 557.17 875.82 564.53 866.74 564.53C857.65 564.53 850.29 557.17 850.29 548.08C850.29 539 857.65 531.63 866.74 531.63ZM787.69 455.56C797.52 455.56 805.84 453.4 812.65 449.06C819.45 444.73 824.44 438.54 827.6 430.48L827.6 408.23L799.58 408.23C789.33 408.23 780.69 410.6 773.65 415.33C766.59 420.07 763.06 425.92 763.06 432.88C763.06 439.53 765.31 444.97 769.79 449.21C774.28 453.44 780.24 455.56 787.69 455.56ZM827.6 440.19C824.19 446.17 819.09 451.04 812.31 454.79C805.55 458.54 797.34 460.42 787.69 460.42C778.48 460.42 771.25 457.9 766 452.88C760.75 447.83 758.13 441.04 758.13 432.5C758.13 424.19 762.04 417.24 769.87 411.63C777.72 406.01 787.53 403.21 799.31 403.21L827.6 403.21L827.6 388.73C827.6 380.49 824.97 374.07 819.69 369.46C814.41 364.86 806.98 362.56 797.4 362.56C788.42 362.56 781.21 364.73 775.75 369.06C770.28 373.4 767.54 378.98 767.54 385.81L763.44 385.63L763.25 385.17C762.87 377.47 765.87 370.96 772.23 365.63C778.58 360.28 786.96 357.6 797.4 357.6C808.02 357.6 816.54 360.29 822.94 365.67C829.35 371.04 832.56 378.79 832.56 388.92L832.56 438.54C832.56 442.01 832.76 445.4 833.15 448.71C833.55 452 834.21 455.26 835.13 458.5L829.62 458.5C828.83 454.17 828.3 450.92 828.02 448.75C827.74 446.58 827.6 444.25 827.6 441.75L827.6 440.19ZM717.75 332.71L717.75 359.44L742.1 359.44L742.1 364.48L717.75 364.48L717.75 432.96C717.75 441.07 719.12 446.85 721.87 450.31C724.61 453.76 728.24 455.48 732.75 455.48C734.4 455.48 735.87 455.42 737.15 455.29C738.44 455.17 740.21 454.95 742.46 454.65L743.37 459.15C741.85 459.63 740.26 459.96 738.62 460.15C736.97 460.33 735.11 460.42 733.04 460.42C726.39 460.42 721.33 458.25 717.87 453.92C714.43 449.58 712.71 442.6 712.71 432.96L712.71 364.48L694.4 364.48L694.4 359.44L712.71 359.44L712.71 332.71L717.75 332.71ZM659.79 332.71L659.79 359.44L684.15 359.44L684.15 364.48L659.79 364.48L659.79 432.96C659.79 441.07 661.17 446.85 663.92 450.31C666.67 453.76 670.3 455.48 674.81 455.48C676.45 455.48 677.92 455.42 679.21 455.29C680.49 455.17 682.26 454.95 684.52 454.65L685.42 459.15C683.9 459.63 682.32 459.96 680.67 460.15C679.01 460.33 677.15 460.42 675.08 460.42C668.43 460.42 663.38 458.25 659.94 453.92C656.48 449.58 654.75 442.6 654.75 432.96L654.75 364.48L636.44 364.48L636.44 359.44L654.75 359.44L654.75 332.71L659.79 332.71ZM588.56 362.56C578.74 362.56 570.56 366.15 564.02 373.31C557.49 380.48 553.8 389.44 552.96 400.19L553.23 400.73L621.52 400.73L621.52 397.71C621.52 387.64 618.47 379.26 612.38 372.58C606.26 365.9 598.32 362.56 588.56 362.56ZM588.83 460.42C577.54 460.42 567.79 455.85 559.58 446.73C551.37 437.6 547.27 426.27 547.27 412.73L547.27 406.85C547.27 392.65 551.24 380.88 559.17 371.56C567.11 362.26 576.91 357.6 588.56 357.6C599.73 357.6 608.84 361.27 615.9 368.6C622.94 375.92 626.46 385.75 626.46 398.08L626.46 405.67L552.21 405.67L552.21 406.85L552.21 412.73C552.21 424.69 555.72 434.81 562.75 443.08C569.76 451.35 578.46 455.48 588.83 455.48C596.22 455.48 602.4 454.47 607.37 452.46C612.35 450.44 616.6 447.42 620.15 443.4L622.81 447.23C618.9 451.56 614.15 454.85 608.56 457.08C602.98 459.3 596.4 460.42 588.83 460.42ZM538.21 363.02L531.79 362.46C522.94 362.46 515.76 365.31 510.25 371.02C504.72 376.73 501.13 384.25 499.48 393.58L499.48 458.5L494.54 458.5L494.54 359.44L498.56 359.44L499.48 376.65L499.48 380.04C502.23 372.96 506.32 367.45 511.75 363.52C517.18 359.58 523.86 357.6 531.79 357.6C533.21 357.6 534.51 357.71 535.69 357.94C536.88 358.15 537.9 358.38 538.75 358.63L538.21 363.02ZM417.81 455.56C427.65 455.56 435.96 453.4 442.77 449.06C449.58 444.73 454.56 438.54 457.73 430.48L457.73 408.23L429.73 408.23C419.46 408.23 410.81 410.6 403.77 415.33C396.71 420.07 393.19 425.92 393.19 432.88C393.19 439.53 395.43 444.97 399.92 449.21C404.4 453.44 410.37 455.56 417.81 455.56ZM457.73 440.19C454.31 446.17 449.22 451.04 442.44 454.79C435.67 458.54 427.46 460.42 417.81 460.42C408.6 460.42 401.37 457.9 396.12 452.88C390.87 447.83 388.25 441.04 388.25 432.5C388.25 424.19 392.17 417.24 400.02 411.63C407.85 406.01 417.66 403.21 429.44 403.21L457.73 403.21L457.73 388.73C457.73 380.49 455.09 374.07 449.81 369.46C444.54 364.86 437.1 362.56 427.52 362.56C418.55 362.56 411.33 364.73 405.87 369.06C400.4 373.4 397.67 378.98 397.67 385.81L393.56 385.63L393.37 385.17C393.01 377.47 396.01 370.96 402.35 365.63C408.7 360.28 417.09 357.6 427.52 357.6C438.15 357.6 446.66 360.29 453.06 365.67C459.48 371.04 462.69 378.79 462.69 388.92L462.69 438.54C462.69 442.01 462.88 445.4 463.27 448.71C463.67 452 464.33 455.26 465.25 458.5L459.75 458.5C458.96 454.17 458.42 450.92 458.15 448.75C457.87 446.58 457.73 444.25 457.73 441.75L457.73 440.19ZM365.62 417.67L365.81 418.21C366.06 431.89 361.93 442.35 353.42 449.58C344.9 456.81 333.69 460.42 319.77 460.42C305.17 460.42 293.49 455.04 284.71 444.27C275.92 433.49 271.52 419.35 271.52 401.83L271.52 381.88C271.52 364.42 275.92 350.28 284.71 339.48C293.49 328.67 305.17 323.27 319.77 323.27C333.69 323.27 344.9 326.9 353.42 334.17C361.93 341.43 366.06 351.8 365.81 365.29L365.62 365.85L361.42 365.85C361.42 353.83 357.68 344.55 350.21 338.02C342.74 331.49 332.59 328.23 319.77 328.23C306.77 328.23 296.3 333.14 288.35 342.96C280.42 352.79 276.46 365.7 276.46 381.69L276.46 401.83C276.46 418 280.42 430.99 288.35 440.79C296.3 450.58 306.77 455.48 319.77 455.48C332.59 455.48 342.74 452.33 350.21 446.04C357.68 439.77 361.42 430.3 361.42 417.67L365.62 417.67ZM778.19 753.06L781.85 762.94L782.42 762.94L782.96 761.48L817.19 671.94L822.69 671.94L778.65 787.48C775.97 794.44 772.84 800.1 769.27 804.46C765.7 808.82 760.01 811 752.19 811C751.04 811 749.76 810.9 748.35 810.69C746.95 810.48 745.91 810.25 745.23 810L746.06 805.33C746.73 805.51 747.74 805.7 749.08 805.87C750.43 806.07 751.47 806.17 752.19 806.17C757.81 806.17 762.19 804.51 765.33 801.21C768.47 797.92 771.27 793.04 773.71 786.56L779.67 770.46L740.21 671.94L745.6 671.94L778.19 753.06ZM731.77 675.52L725.37 674.96C716.53 674.96 709.34 677.81 703.81 683.52C698.28 689.23 694.7 696.75 693.06 706.08L693.06 771L688.1 771L688.1 671.94L692.15 671.94L693.06 689.15L693.06 692.54C695.8 685.46 699.88 679.95 705.31 676.02C710.74 672.08 717.43 670.1 725.37 670.1C726.78 670.1 728.08 670.21 729.27 670.44C730.45 670.65 731.47 670.87 732.33 671.12L731.77 675.52ZM627.12 675.06C617.3 675.06 609.13 678.65 602.6 685.81C596.06 692.98 592.37 701.94 591.52 712.69L591.79 713.23L660.08 713.23L660.08 710.21C660.08 700.14 657.04 691.76 650.94 685.08C644.84 678.4 636.9 675.06 627.12 675.06ZM627.42 772.92C616.13 772.92 606.37 768.35 598.17 759.23C589.96 750.1 585.85 738.77 585.85 725.23L585.85 719.35C585.85 705.15 589.82 693.38 597.75 684.06C605.68 674.76 615.47 670.1 627.12 670.1C638.3 670.1 647.42 673.77 654.46 681.1C661.51 688.42 665.04 698.25 665.04 710.58L665.04 718.17L590.79 718.17L590.79 719.35L590.79 725.23C590.79 737.19 594.3 747.3 601.31 755.58C608.34 763.85 617.04 767.98 627.42 767.98C634.79 767.98 640.97 766.97 645.96 764.96C650.93 762.94 655.19 759.92 658.73 755.9L661.38 759.73C657.47 764.06 652.73 767.35 647.15 769.58C641.56 771.81 634.99 772.92 627.42 772.92ZM561.13 771L556.19 771L556.19 628.19L561.13 628.19L561.13 771ZM522.48 771L517.54 771L517.54 628.19L522.48 628.19L522.48 771ZM439.63 768.06C449.46 768.06 457.78 765.9 464.58 761.56C471.39 757.23 476.38 751.03 479.54 742.98L479.54 720.73L451.54 720.73C441.28 720.73 432.63 723.1 425.58 727.83C418.53 732.57 415 738.42 415 745.37C415 752.03 417.24 757.47 421.73 761.71C426.22 765.95 432.18 768.06 439.63 768.06ZM479.54 752.69C476.13 758.67 471.03 763.54 464.27 767.29C457.49 771.04 449.28 772.92 439.63 772.92C430.42 772.92 423.19 770.4 417.94 765.37C412.69 760.33 410.06 753.54 410.06 745C410.06 736.7 413.99 729.74 421.83 724.12C429.67 718.51 439.48 715.71 451.27 715.71L479.54 715.71L479.54 701.23C479.54 692.99 476.9 686.57 471.63 681.96C466.35 677.36 458.92 675.06 449.33 675.06C440.36 675.06 433.15 677.23 427.69 681.56C422.23 685.9 419.5 691.48 419.5 698.31L415.38 698.12L415.19 697.67C414.83 689.97 417.82 683.46 424.17 678.12C430.51 672.78 438.9 670.1 449.33 670.1C459.96 670.1 468.47 672.79 474.88 678.17C481.29 683.54 484.5 691.29 484.5 701.42L484.5 751.04C484.5 754.51 484.69 757.9 485.08 761.21C485.49 764.5 486.15 767.76 487.06 771L481.56 771C480.77 766.67 480.24 763.42 479.96 761.25C479.68 759.08 479.54 756.75 479.54 754.25L479.54 752.69ZM385.17 756.71C382.36 760.62 376.97 764.3 369 767.75C361.04 771.19 351.26 772.92 339.67 772.92C324.4 772.92 312.03 767.49 302.54 756.62C293.04 745.76 288.29 731.63 288.29 714.23L288.29 692.44C288.29 675.71 292.9 662.09 302.13 651.56C311.33 641.04 323.33 635.77 338.1 635.77C352.2 635.77 363.39 639.42 371.67 646.71C379.93 654.01 384.15 663.43 384.33 674.96L384.15 675.52L380.04 675.52C379.54 665.2 375.74 656.82 368.63 650.37C361.53 643.94 351.35 640.73 338.1 640.73C324.62 640.73 313.77 645.54 305.56 655.15C297.35 664.76 293.25 677.13 293.25 692.27L293.25 714.23C293.25 730.1 297.49 743.03 305.96 753C314.44 762.99 325.68 767.98 339.67 767.98C349.49 767.98 358.08 766.54 365.44 763.67C372.78 760.81 377.71 757.73 380.21 754.44L380.21 715.6L339.48 715.6L339.48 710.58L385.17 710.58L385.17 756.71Z" />
	</g>
</svg>